<svg id="Layer_1" data-name="Layer 1" xmlns="http://www.w3.org/2000/svg" viewBox="0 0 299.25 217.8"><defs><style>.cls-1{fill:#231f20;fill-rule:evenodd;}</style></defs><title>continental_logo</title><path class="cls-1" d="M299.6,42.07l-60,217.8H.35L58.7,42.07ZM178.07,165.15h52.14c-3.18,9.7-6.74,19.25-11.4,24.14-9.11,10.29-19.18,14-30.51,17.48A87.31,87.31,0,0,1,170.45,210c-8.59.81-21,1.26-34.07,1.33s-26.51-.44-35.55-1.11a103.45,103.45,0,0,1-17-2.37C77,206,72.7,205.07,66.4,199.73c-8.36-8.22-7.4-16.88-5.69-26C66,156.41,70.77,139.82,78,124.42c4.37-8.59,13.63-18.07,22.88-22.66a81.56,81.56,0,0,1,13.33-5.33A113.7,113.7,0,0,1,137,92c10.89-1.11,25.92-1.78,39.32-1.85s25,.3,32.95.89a94,94,0,0,1,15.11,2.07c6.08,1.63,9.78,2.3,15.33,7.26,9.33,10.29,4.15,23.33.89,33.47H188.44c1.18-3.55,2.67-7,.89-10.29-3.78-4.81-6.89-4.59-14.07-5.41-3.11-.22-7.7-.37-12.29-.37-8.15.07-16.22.59-20.81,1.85-4.3,1.33-7.11,1.85-11.63,6.74-3.7,4.52-4.89,8.81-6.81,14-3,9.18-7.1,20.07-9,27.47-.82,3.78-1.18,4.67-.22,8.44,2.74,6.22,10.37,6.44,17,7.11,2.59.15,5.92.3,10.44.22,9.11,0,19.48-.74,22-1.85a26.24,26.24,0,0,0,4-1.63c4-1.7,7.85-7.55,8.89-11.4Z" transform="translate(-0.35 -42.07)"/></svg>